<svg xmlns="http://www.w3.org/2000/svg" xmlns:xlink="http://www.w3.org/1999/xlink" viewBox="0 0 2797 548.81"><defs><style>.cls-1{fill:none;}.cls-2{isolation:isolate;}.cls-3{fill:url(#未命名的渐变_6);}.cls-4,.cls-8{fill:#fff;}.cls-5{opacity:0.26;mix-blend-mode:multiply;}.cls-6{opacity:0.31;}.cls-7{clip-path:url(#clip-path);}.cls-8{opacity:0.14;}</style><linearGradient id="未命名的渐变_6" x1="53.54" y1="107.78" x2="366.86" y2="301.29" gradientUnits="userSpaceOnUse"><stop offset="0" stop-color="#56dbc8"/><stop offset="1" stop-color="#516ffa"/></linearGradient><clipPath id="clip-path"><circle class="cls-1" cx="315.29" cy="269.44" r="157.29"/></clipPath></defs><title>资源 27</title><g class="cls-2"><g id="图层_2" data-name="图层 2"><g id="图层_1-2" data-name="图层 1"><circle class="cls-3" cx="315.29" cy="269.44" r="157.29"/><path class="cls-4" d="M315.29,331l-55.5-27.86V240l55.5-32,55.5,32v63.17l-3.06,3Zm-43.91-32.71,43.91,16.4,43.9-16.4V246.65l-43.9-25.35-43.91,25.35Z"/><rect class="cls-4" x="259.79" y="272.58" width="85.03" height="11.6"/><polyline class="cls-4" points="297.68 245.4 317.01 233.81 344.06 245.4"/><g class="cls-5"><path d="M315.29,384.22A104.58,104.58,0,1,1,419.86,279.64,104.7,104.7,0,0,1,315.29,384.22Zm0-193.85a89.28,89.28,0,1,0,89.27,89.27A89.37,89.37,0,0,0,315.29,190.37Z"/></g><path class="cls-4" d="M315.29,374A104.58,104.58,0,1,1,419.86,269.44,104.71,104.71,0,0,1,315.29,374Zm0-193.85a89.27,89.27,0,1,0,89.27,89.27A89.37,89.37,0,0,0,315.29,180.17Z"/><g class="cls-6"><g class="cls-7"><path class="cls-8" d="M404.31,159.42,138.49,100.74l58.68,265.82,44.47-10.12-10.12,44.47,265.81,58.68L438.66,193.77l-44.47,10.12Zm-11.84,7.5-9,39.4L275.27,230.94,159.91,115.58ZM381.08,217l-22,96.9L284.18,239ZM204.67,354.72,153.56,123.2l115,115L244.07,345.76Zm72.12-108.29,74.86,74.86-96.9,22Zm-33.44,147,9-39.4,108.24-24.62L475.92,444.75ZM431.16,205.6l51.11,231.53-115-115,24.47-107.58Z"/></g></g><path class="cls-4" d="M739,380H686.24l30.89-133.88-56.2,85.77H624.51L606.44,240.5,574.25,380H524.17L571.4,175.34h60.65L654.47,278,724,175.34h62.2Z"/><path class="cls-4" d="M845.37,436.65H791L830.3,377,804.87,225.65h50.59l13.37,101.08,58.79-101.08h52.29Z"/><path class="cls-4" d="M1205.2,175.34,1158,380h-53l20.87-90.45h-77.69L1027.26,380h-53l47.22-204.68h53l-17.38,75.33h77.68l17.38-75.33Z"/><path class="cls-4" d="M1403.37,380h-58.21l-46-82.76-21.38,18.58L1263,380h-53L1257,175.34h53l-20.76,90.22,92.46-90.22h62.69L1341.06,270.6Z"/><path class="cls-4" d="M1647.49,255.21a119.28,119.28,0,0,1-18.28,64.19q-18.29,29.42-46.87,45.09a114.93,114.93,0,0,1-36.15,12.44Q1527.35,380,1501.1,380H1427l47.22-204.68h66.28q29.29,0,47.17,4.54t28.87,12.23a69.71,69.71,0,0,1,23,26Q1647.5,233.76,1647.49,255.21ZM1592.24,260q0-14-5.22-24.12a39.71,39.71,0,0,0-15.93-16.29,46.61,46.61,0,0,0-10.09-4.2,71.26,71.26,0,0,0-11.74-2.13q-6.32-.54-14.41-.55h-15.93L1488.71,342.5h21.83a125.57,125.57,0,0,0,14.69-.69,83.93,83.93,0,0,0,13.11-2.2,63.78,63.78,0,0,0,12.84-5.09,69.84,69.84,0,0,0,30.41-30.38A93.17,93.17,0,0,0,1592.24,260Z"/><path class="cls-4" d="M1990.59,175.34,1891.19,380h-56.75l-8.81-135.78L1759.3,380h-58.88l-9.35-204.68h55.18l.37,140.81,68.62-140.81H1868l6.24,140.78,62.56-140.78Z"/><path class="cls-4" d="M2073.15,363.68,2061.87,371a88,88,0,0,1-12.24,6.78,101.56,101.56,0,0,1-14.45,4.83q-6.73,1.67-18.71,1.66-19.26,0-31.44-10.8t-12.17-28.15q0-18.3,8.65-31t25.68-20.3q15.93-7.15,38-10.32t47.72-4.68c.1-.55.3-1.44.6-2.68a17.37,17.37,0,0,0,.46-4.2q0-9.75-9.07-13.67t-27.08-3.92a101.53,101.53,0,0,0-27,4.12q-14.77,4.13-22.19,6.88h-4.54l7.29-36.57q8.65-2.19,26.8-4.95a241.42,241.42,0,0,1,36.15-2.74q36.3,0,53.27,9.48t17,29.42a68.62,68.62,0,0,1-.48,7.14,59.44,59.44,0,0,1-1.31,7.7l-24.19,105h-49.23Zm13.17-56.51q-13.28,1.09-24.88,2.61a97.27,97.27,0,0,0-19.76,4.4q-8.43,3-12.85,8.52t-4.42,14.57q0,8,5.87,11.2t17.07,3.23a42.14,42.14,0,0,0,15.68-3.35,75.35,75.35,0,0,0,15.69-8.57Z"/><path class="cls-4" d="M2263,166.13,2213.59,380h-49.8l49.44-213.89Z"/><path class="cls-4" d="M2359.26,166.13,2309.82,380H2260l49.45-213.89Z"/><path class="cls-4" d="M2443.32,384.28q-39.48,0-61-17.47t-21.46-48.29a103.7,103.7,0,0,1,7-38.66,91.79,91.79,0,0,1,20.23-31q12.64-12.93,31.64-20.5a111.66,111.66,0,0,1,41.68-7.57q34.53,0,52.07,14t17.54,41.23a89.77,89.77,0,0,1-1.86,18.31,145.92,145.92,0,0,1-4.89,17.76h-114.9v3.16q0,16.08,11.3,25.15t34.59,9.08a86.45,86.45,0,0,0,30.8-5.5,142.62,142.62,0,0,0,25.29-12.24h5.51l-9.21,39.73a149.11,149.11,0,0,1-30.41,9.55A171.4,171.4,0,0,1,2443.32,384.28Zm37.86-101.17c.28-1.65.48-3.17.62-4.55a42.45,42.45,0,0,0,.21-4.28q0-10.9-6.76-16.71t-19.46-5.8q-15.32,0-25.73,8.29t-15.8,23.05Z"/><path class="cls-4" d="M2602.42,383.05q-25.7,0-36.7-8.46t-11-25.08a51.61,51.61,0,0,1,.68-8.53c.46-2.75,1.06-6,1.79-9.62l16.87-73.13h-20.44l7.57-32.58h20.39l10.18-44.12h49.65l-10.13,44.12h46.33l-7.54,32.58H2623.8l-12.91,55.67q-1.39,5.78-2.64,11.62a48.45,48.45,0,0,0-1.25,10q0,8.25,4.6,11.48t14.21,3.23a47.26,47.26,0,0,0,10.1-1.44,49.13,49.13,0,0,0,10-3.23H2650l-7.7,33.13a156.56,156.56,0,0,1-17.66,3.23A182.85,182.85,0,0,1,2602.42,383.05Z"/><rect class="cls-1" width="2797" height="548.81"/></g></g></g></svg>