<svg xmlns="http://www.w3.org/2000/svg" xmlns:xlink="http://www.w3.org/1999/xlink" viewBox="0 0 3317 548.81"><defs><style>.cls-1{fill:none;}.cls-2{isolation:isolate;}.cls-3{fill:url(#未命名的渐变_6);}.cls-4,.cls-8{fill:#fff;}.cls-5{opacity:0.26;mix-blend-mode:multiply;}.cls-6{opacity:0.31;}.cls-7{clip-path:url(#clip-path);}.cls-8{opacity:0.14;}</style><linearGradient id="未命名的渐变_6" x1="30.11" y1="107.78" x2="343.42" y2="301.29" gradientUnits="userSpaceOnUse"><stop offset="0" stop-color="#56dbc8"/><stop offset="1" stop-color="#516ffa"/></linearGradient><clipPath id="clip-path"><circle class="cls-1" cx="291.85" cy="269.44" r="157.29"/></clipPath></defs><title>资源 28</title><g class="cls-2"><g id="图层_2" data-name="图层 2"><g id="图层_1-2" data-name="图层 1"><circle class="cls-3" cx="291.85" cy="269.44" r="157.29"/><path class="cls-4" d="M291.85,331l-55.5-27.86V240l55.5-32,55.5,32v63.17l-3.06,3ZM248,298.27l43.9,16.4,43.91-16.4V246.65L291.85,221.3,248,246.65Z"/><rect class="cls-4" x="236.35" y="272.58" width="85.03" height="11.6"/><polyline class="cls-4" points="274.25 245.4 293.57 233.81 320.63 245.4"/><g class="cls-5"><path d="M291.85,384.22A104.58,104.58,0,1,1,396.43,279.64,104.69,104.69,0,0,1,291.85,384.22Zm0-193.85a89.28,89.28,0,1,0,89.27,89.27A89.38,89.38,0,0,0,291.85,190.37Z"/></g><path class="cls-4" d="M291.85,374A104.58,104.58,0,1,1,396.43,269.44,104.7,104.7,0,0,1,291.85,374Zm0-193.85a89.27,89.27,0,1,0,89.27,89.27A89.38,89.38,0,0,0,291.85,180.17Z"/><g class="cls-6"><g class="cls-7"><path class="cls-8" d="M380.87,159.42,115.06,100.74l58.68,265.82,44.46-10.12-10.12,44.47L473.9,459.59,415.22,193.77l-44.47,10.12ZM369,166.92l-9,39.4L251.83,230.94,136.47,115.58ZM357.65,217l-22,96.9L260.74,239ZM181.23,354.72,130.12,123.2l115,115L220.63,345.76Zm72.12-108.29,74.86,74.86-96.9,22Zm-33.43,147,9-39.4,108.24-24.62L452.48,444.75ZM407.72,205.6l51.11,231.53-115-115,24.47-107.58Z"/></g></g><path class="cls-4" d="M715.56,380H662.8l30.89-133.88-56.2,85.77H601.07L583,240.5,550.82,380H500.74L548,175.34h60.66L631,278l69.54-102.69h62.21Z"/><path class="cls-4" d="M821.94,436.65H767.52L806.86,377,781.43,225.65H832l13.36,101.08,58.79-101.08h52.3Z"/><path class="cls-4" d="M1181.76,175.34,1134.55,380h-53l20.87-90.45h-77.68L1003.82,380h-53L998,175.34h53l-17.38,75.33h77.68l17.38-75.33Z"/><path class="cls-4" d="M1379.93,380h-58.21l-46-82.76-21.38,18.58L1239.56,380h-53l47.09-204.68h53l-20.75,90.22,92.45-90.22H1421L1317.62,270.6Z"/><path class="cls-4" d="M1624.06,255.21a119.37,119.37,0,0,1-18.28,64.19q-18.29,29.42-46.88,45.09a114.93,114.93,0,0,1-36.15,12.44q-18.84,3.09-45.09,3.09h-74.09l47.23-204.68h66.28q29.28,0,47.16,4.54t28.88,12.23a69.68,69.68,0,0,1,23,26Q1624.06,233.76,1624.06,255.21ZM1568.8,260q0-14-5.22-24.12a39.75,39.75,0,0,0-15.92-16.29,46.82,46.82,0,0,0-10.09-4.2,71.65,71.65,0,0,0-11.74-2.13q-6.32-.54-14.42-.55h-15.92L1465.27,342.5h21.83a125.57,125.57,0,0,0,14.69-.69,84.27,84.27,0,0,0,13.12-2.2,64,64,0,0,0,12.83-5.09,69.92,69.92,0,0,0,30.42-30.38A93.28,93.28,0,0,0,1568.8,260Z"/><path class="cls-4" d="M1967.16,175.34,1867.75,380H1811l-8.8-135.78L1735.87,380H1677l-9.35-204.68h55.18l.38,140.81,68.62-140.81h52.75l6.24,140.78,62.57-140.78Z"/><path class="cls-4" d="M2049.71,363.68,2038.43,371a88,88,0,0,1-12.24,6.78,101.14,101.14,0,0,1-14.45,4.83q-6.73,1.67-18.71,1.66-19.26,0-31.43-10.8t-12.18-28.15q0-18.3,8.65-31t25.68-20.3q15.93-7.15,38-10.32t47.72-4.68c.1-.55.31-1.44.61-2.68a17.91,17.91,0,0,0,.45-4.2q0-9.75-9.07-13.67t-27.07-3.92a101.47,101.47,0,0,0-27,4.12q-14.77,4.13-22.2,6.88h-4.53l7.28-36.57q8.67-2.19,26.81-4.95a241.23,241.23,0,0,1,36.15-2.74q36.28,0,53.26,9.48t17,29.42a68.62,68.62,0,0,1-.48,7.14,57.77,57.77,0,0,1-1.31,7.7l-24.19,105h-49.22Zm13.17-56.51q-13.27,1.09-24.88,2.61a97.43,97.43,0,0,0-19.76,4.4q-8.41,3-12.85,8.52T2001,337.27q0,8,5.87,11.2t17.07,3.23a42.23,42.23,0,0,0,15.69-3.35,75.27,75.27,0,0,0,15.68-8.57Z"/><path class="cls-4" d="M2239.6,166.13,2190.16,380h-49.81l49.45-213.89Z"/><path class="cls-4" d="M2335.82,166.13,2286.38,380h-49.8L2286,166.13Z"/><path class="cls-4" d="M2419.88,384.28q-39.48,0-61-17.47t-21.46-48.29a103.51,103.51,0,0,1,7-38.66,91.61,91.61,0,0,1,20.22-31q12.66-12.93,31.64-20.5a111.72,111.72,0,0,1,41.69-7.57q34.53,0,52.07,14t17.54,41.23a89.77,89.77,0,0,1-1.86,18.31,147.75,147.75,0,0,1-4.89,17.76H2386v3.16q0,16.08,11.29,25.15t34.6,9.08a86.49,86.49,0,0,0,30.8-5.5A142.84,142.84,0,0,0,2488,331.77h5.52l-9.22,39.73a149.11,149.11,0,0,1-30.41,9.55A171.33,171.33,0,0,1,2419.88,384.28Zm37.87-101.17c.27-1.65.48-3.17.62-4.55s.2-2.81.2-4.28q0-10.9-6.76-16.71t-19.45-5.8q-15.32,0-25.74,8.29t-15.79,23.05Z"/><path class="cls-4" d="M2579,383.05q-25.71,0-36.7-8.46t-11-25.08A51.6,51.6,0,0,1,2532,341c.45-2.75,1.05-6,1.78-9.62l16.88-73.13h-20.45l7.58-32.58h20.38l10.18-44.12H2618l-10.13,44.12h46.33l-7.53,32.58h-46.29l-12.91,55.67q-1.39,5.78-2.64,11.62a49.16,49.16,0,0,0-1.25,10q0,8.25,4.6,11.48t14.22,3.23a47.26,47.26,0,0,0,10.09-1.44,48.71,48.71,0,0,0,10-3.23h4.12l-7.7,33.13a156.56,156.56,0,0,1-17.66,3.23A182.79,182.79,0,0,1,2579,383.05Z"/><path class="cls-4" d="M2841.54,384q-41.52,0-64.06-20.41t-22.54-58.49q0-30.11,10-54.58a129.92,129.92,0,0,1,27.43-42.33,120.74,120.74,0,0,1,40.89-27.08,131,131,0,0,1,50.1-9.76,169.07,169.07,0,0,1,39.32,4.33,121.71,121.71,0,0,1,32.71,12.71L2943.26,238h-6.05q-13.07-14-26-20.62t-30.38-6.6q-30.66,0-50.52,24.6t-19.86,62.69q0,24.47,11,35.46t32.16,11a84.45,84.45,0,0,0,35.6-7.63,152.48,152.48,0,0,0,31.48-19.45h5.5l-12,48.93q-6.18,2.47-14.43,6A142.25,142.25,0,0,1,2884,378.1a175.9,175.9,0,0,1-18.49,4.4Q2856.93,384,2841.54,384Z"/><path class="cls-4" d="M3026.15,274.66l-49.49-99.32h57.44l30.12,64.36L3124,175.34h58.45l-96.35,102L3136.25,380h-57.6l-30.58-68.16-62,68.16h-58.26Z"/><rect class="cls-1" width="3317" height="548.81"/></g></g></g></svg>